<svg xmlns="http://www.w3.org/2000/svg" width="608.625" height="608.625" viewBox="0 0 608.625 608.625">
  <defs>
    <style>
      .cls-1 {
        fill: #dea459;
        stroke: #dea459;
        stroke-linejoin: round;
        stroke-width: 9.56px;
        fill-rule: evenodd;
      }
    </style>
  </defs>
  <path id="PathfinderIcon.svg" class="cls-1" d="M306,6.482c165.419,0,299.518,134.1,299.518,299.518S471.419,605.518,306,605.518,6.482,471.419,6.482,306,140.581,6.482,306,6.482Zm0,34.026c146.627,0,265.492,118.865,265.492,265.492S452.627,571.492,306,571.492,40.508,452.627,40.508,306,159.373,40.508,306,40.508ZM307,249v38s-49.7,46.052-91,110c-44.573,69.021-16.831,122.826-22,121-81.773-28.893-95.99-106.449-93-125,1.617-10.034,21.154,29.569,59-2,58.9-49.128,62.136-56.627,70-66,9.865-11.756,12.386-17.2,8-23-3.14-4.155-19.2-28.25-68-12-3.929,1.308,7.792-8.832,11-10a66.155,66.155,0,0,1,42,0c19.734,6.677,19.629,8.225,39,7,9.773-.618,23.983-15.7,28-21,1.115-1.471-14.919-20.03-38-29-1.417-.551-13.759-5.563-24-6-29.048-1.239-87.46-.595-117,6-6.341,1.416-30,23-30,23s-2-6.59-2-4,0.376-39.638,16-66c15.667-26.433,36.9-51.208,46-55,1.431-.6-3.163,21.353,4,34,4.337,7.657,11.1,17.016,22,23s33.219,7.937,40,8,22.834-.2,26-1,11.065-7.432,11-8,3.075,4.147,13,14,15.344,16.849,22,23C287.431,235.791,303.547,248.568,307,249Zm-1-.009v38s49.7,46.049,91,109.992c44.573,69.015,16.831,122.816,22,120.99,81.773-28.891,95.99-106.441,93-124.99-1.617-10.033-21.154,29.566-59-2-58.9-49.124-62.136-56.623-70-65.995-9.865-11.755-12.386-17.195-8-23,3.14-4.154,19.2-28.247,68-12,3.929,1.309-7.792-8.831-11-10a66.17,66.17,0,0,0-42,0c-19.734,6.677-19.629,8.224-39,7-9.773-.618-23.983-15.7-28-21-1.115-1.471,14.919-20.028,38-29,1.417-.551,13.759-5.563,24-6,29.048-1.238,87.46-.595,117,6,6.341,1.415,30,23,30,23s2-6.589,2-4S533.624,216.355,518,190c-15.667-26.431-36.9-51.2-46-55-1.431-.6,3.163,21.352-4,34-4.337,7.657-11.1,17.014-22,23s-33.219,7.936-40,8-22.834-.2-26-1-11.065-7.431-11-8-3.075,4.147-13,14-15.344,16.848-22,23C325.569,235.783,309.453,248.559,306,248.991ZM306,78s-1.982,20.2-14,34c-11.239,12.909-31.675,12.971-32,16-0.163,1.52,22.924,4.225,32,15,9.061,10.757,11.184,27.4,14,37,0.556,1.894,3.682-21.653,15-36,13.157-16.677,30.107-15.352,30-17-0.112-1.733-13.92-1.316-28-15C309.884,99.254,306,78,306,78Z" transform="translate(-1.688 -1.688)"/>
</svg>
